<svg id="Layer_1" data-name="Layer 1" xmlns="http://www.w3.org/2000/svg" viewBox="0 0 128 128"><rect y="20.59" width="22.61" height="107.41" fill="#fff"/><rect x="73.67" y="11.17" width="22.61" height="116.83" fill="#fff"/><path d="M83.36,122.2l-9.7,5.8Q62.8,109.84,51.93,91.66h0q0-10.47,0-20.94Z" transform="translate(0 0)" fill="#fff"/><path d="M44.4,57q0,11.1,0,22.18L13,26.5l9.7-5.8Z" transform="translate(0 0)" fill="#fff"/><rect x="58.19" y="-58.19" width="11.63" height="128" transform="translate(58.19 69.81) rotate(-90)" fill="#fff"/><path d="M128,35.35a25.07,25.07,0,0,0-8.78-12.19,39.59,39.59,0,0,0-17.17-7.36h26Z" transform="translate(0 0)" fill="#fff"/></svg>